<?xml version="1.0" encoding="UTF-8"?>
<svg version="1.1" xmlns="http://www.w3.org/2000/svg" width="1024" height="1024">
<path d="M0 0 C2.14513289 0.23402804 4.28987903 0.47260519 6.43165779 0.73556519 C10.53324414 1.1578618 14.61272758 1.12252654 18.73217773 1.09765625 C19.66042862 1.09619598 20.5886795 1.09473572 21.5450592 1.0932312 C23.54691036 1.0894473 25.54875825 1.08335441 27.55059624 1.07516479 C30.7361353 1.06228761 33.92163217 1.05585564 37.10719299 1.05102539 C45.02467015 1.03772059 52.94210742 1.01363042 60.85955811 0.98962402 C67.54930978 0.96972867 74.23904579 0.95415181 80.92881966 0.94406128 C84.03586297 0.93767518 87.14284027 0.92516468 90.24986267 0.91235352 C99.19481013 0.88848165 108.12000593 0.95059642 117.05493164 1.40625 C118.1356288 1.45766396 118.1356288 1.45766396 119.23815823 1.51011658 C129.91753053 2.14135539 138.68333859 6.11953281 146 14 C153.89365131 26.01207809 154.32324089 38.19637844 154.3359375 52.046875 C154.34237836 53.70680858 154.34910764 55.36674106 154.35610962 57.02667236 C154.36803792 60.49632393 154.3717951 63.96587627 154.37060547 67.43554688 C154.37040264 71.84766209 154.39768718 76.25913062 154.43214989 80.67109299 C154.45455868 84.09782747 154.45843875 87.52440982 154.45738602 90.95121002 C154.45972168 92.57606481 154.4684282 94.20092512 154.48405075 95.82570648 C154.60217157 109.37967875 153.3267315 121.42329418 144 132 C143.54109375 132.5878125 143.0821875 133.175625 142.609375 133.78125 C140.47824589 136.50293295 139.34662773 137.88445742 136 139 C133.99387768 139.98864344 132.01604586 141.02434591 130.03515625 142.0625 C126.49004824 143.69556319 123.15096993 144.14271853 119.27288818 144.31544495 C118.33741276 144.35728629 117.40193733 144.39912764 116.43811417 144.4422369 C115.42696423 144.48135976 114.41581429 144.52048262 113.37402344 144.56079102 C112.31019314 144.60311387 111.24636284 144.64543673 110.15029526 144.68904209 C99.25148757 145.08507618 88.36220319 145.10106373 77.45771027 145.04459953 C73.90716643 145.02680003 70.35666988 145.01678674 66.80609131 145.00868225 C56.7320105 144.98456192 46.65799536 144.94848888 36.58398438 144.90405273 C30.37066811 144.87717622 24.15738674 144.86020273 17.94402313 144.84918404 C15.59825074 144.84301806 13.25248485 144.83306871 10.90674591 144.81910515 C7.63081948 144.79974047 4.3550778 144.79297379 1.07910156 144.78881836 C0.13136871 144.78005676 -0.81636414 144.77129517 -1.79281616 144.76226807 C-12.02612607 144.77697648 -22.68582233 145.46390389 -31 152 C-38.2844323 159.59774121 -39.297192 166.95813212 -39.22705078 177.14599609 C-39.22748886 178.8151709 -39.22748886 178.8151709 -39.22793579 180.51806641 C-39.22654537 184.18660347 -39.21099741 187.85493602 -39.1953125 191.5234375 C-39.19158136 194.07076913 -39.18873486 196.61810221 -39.18673706 199.16543579 C-39.17988781 205.17890803 -39.16413388 211.19229284 -39.14403808 217.20573008 C-39.12164944 224.05457986 -39.11067821 230.90343322 -39.10064721 237.75231051 C-39.07976674 251.83491408 -39.04460931 265.91745303 -39 280 C-37.59325362 280.16674016 -36.18614649 280.33043804 -34.77890015 280.49290466 C-33.99535849 280.58440009 -33.21181683 280.67589552 -32.40453148 280.77016354 C-28.57292991 281.13640609 -24.75988329 281.12325709 -20.9140625 281.09765625 C-20.09046234 281.0962413 -19.26686218 281.09482635 -18.41830444 281.09336853 C-15.82049719 281.08783275 -13.22278054 281.0753029 -10.625 281.0625 C-8.86067835 281.05747575 -7.09635532 281.05291448 -5.33203125 281.04882812 C-2.11668119 281.04069764 1.0986358 281.0300563 4.31396484 281.01586914 C8.68830734 280.9970367 13.06217151 281.00462947 17.43652344 281.01586914 C24.11056424 281.03237892 30.78460425 281.04351419 37.45866013 281.05181217 C41.49019232 281.05700111 45.52170289 281.06403095 49.55322266 281.07543945 C53.4665167 281.08643893 57.37979012 281.09231175 61.29309845 281.09487724 C62.77114436 281.09669974 64.24918936 281.10025691 65.72722626 281.10573006 C75.53073749 281.14055311 85.22944613 280.778359 95 280 C94.11739502 279.11739502 93.23479004 278.23479004 92.32543945 277.32543945 C68.3215332 253.3215332 68.3215332 253.3215332 66.60342407 251.60269165 C65.13343155 250.1333706 63.66095501 248.66653582 62.18823242 247.19995117 C54.65027755 239.62162792 51.35145998 231.97137078 50.83984375 221.27734375 C51.33976826 211.0471813 56.6752315 203.13673508 63.875 196.25 C69.36306295 192.29859468 75.27771631 188.82422486 82.1875 188.9375 C83.445625 188.958125 84.70375 188.97875 86 189 C86.33 188.34 86.66 187.68 87 187 C87 187.66 87 188.32 87 189 C87.969375 188.9175 88.93875 188.835 89.9375 188.75 C99.30558933 188.8252457 106.2489466 195.22442069 113 201 C114.04497597 201.88351902 115.09057522 202.76630125 116.13671875 203.6484375 C117.79897218 205.05166098 119.45977682 206.45645052 121.11669922 207.8659668 C124.50231572 210.745772 127.92058636 213.57759222 131.375 216.375 C136.49813067 220.54221124 141.47594928 224.86312457 146.45263672 229.20263672 C150.08719203 232.36452443 153.75511868 235.46842941 157.5 238.5 C161.91669155 242.07541697 166.21776874 245.76603141 170.5 249.5 C175.67925953 254.01481932 180.91835832 258.4323793 186.2578125 262.7578125 C189.36999968 265.30253535 192.43732143 267.89611777 195.5 270.5 C199.57011324 273.96016714 203.6676676 277.37909896 207.8125 280.75 C208.699375 281.47832031 209.58625 282.20664062 210.5 282.95703125 C212.07084012 284.24070216 213.65273442 285.51108198 215.25 286.76171875 C223.53211982 293.4909411 228.49542081 302.41116907 230 313 C230.5731559 324.0537209 227.08414542 333.25179782 220.125 341.8125 C217.34315326 344.80334559 214.30265794 347.47843963 211.1953125 350.125 C208.80162551 352.16943017 206.46153442 354.26552692 204.125 356.375 C203.28066406 357.13554688 202.43632813 357.89609375 201.56640625 358.6796875 C199.88302252 360.20165087 198.20320165 361.72756626 196.52734375 363.2578125 C192.21722675 367.17858454 187.84963248 370.96802163 183.3125 374.625 C179.58864142 377.63533603 176.19165035 380.74328617 172.875 384.1875 C170.53398027 386.45048573 168.03685869 388.45948323 165.5 390.5 C161.6452843 393.60270432 158.09071351 396.79252176 154.6484375 400.33984375 C150.61590868 404.40103984 146.15636662 408.01639813 141.80078125 411.72265625 C140.61696772 412.731513 139.43338113 413.74063609 138.25 414.75 C137.64542969 415.26506104 137.04085937 415.78012207 136.41796875 416.31079102 C132.50427824 419.66188851 128.70035201 423.10635043 124.9375 426.625 C113.20526404 437.41990686 102.72340548 446.70006134 85.96923828 446.47143555 C75.72428988 446.01192839 67.20338404 442.3254753 60 435 C53.60736613 427.03059793 50.60913415 419.33637022 51 409.125 C52.53268555 398.01302978 59.3288074 389.69436841 67 382 C67.51530273 381.48308594 68.03060547 380.96617187 68.56152344 380.43359375 C72.93166545 376.0556895 72.93166545 376.0556895 75.10205078 373.93359375 C77.90629466 371.23909923 77.90629466 371.23909923 80 368 C80.66 368 81.32 368 82 368 C82.25523437 367.41734375 82.51046875 366.8346875 82.7734375 366.234375 C84.11741087 363.78611777 85.61810296 362.18256752 87.625 360.25 C88.25664063 359.63640625 88.88828125 359.0228125 89.5390625 358.390625 C90.02117187 357.93171875 90.50328125 357.4728125 91 357 C89.20495377 354.78761232 89.20495377 354.78761232 86.7760849 354.75669765 C85.84398445 354.75984006 84.911884 354.76298246 83.95153809 354.76622009 C82.88308151 354.76491592 81.81462494 354.76361176 80.71379089 354.76226807 C79.53657974 354.77102966 78.35936859 354.77979126 77.14648438 354.78881836 C75.91070145 354.7901326 74.67491852 354.79144684 73.40168762 354.7928009 C70.71093413 354.79707325 68.02048047 354.80499674 65.32978821 354.81910515 C61.07805514 354.84133026 56.82636734 354.84945441 52.57458496 354.85560608 C45.85150736 354.86699563 39.12849649 354.88772841 32.40545607 354.91250378 C20.36167232 354.95680869 8.31786515 354.9899881 -3.72597837 355.01274782 C-7.95540559 355.02117165 -12.18476699 355.03521333 -16.41416168 355.05372036 C-19.65825887 355.0668339 -22.90237126 355.07373694 -26.14648438 355.08178711 C-27.9123011 355.09189316 -27.9123011 355.09189316 -29.71379089 355.10220337 C-30.78224747 355.10371902 -31.85070404 355.10523468 -32.95153809 355.10679626 C-33.88363853 355.11031569 -34.81573898 355.11383512 -35.7760849 355.1174612 C-38 355 -38 355 -40 354 C-39.99723462 355.05907122 -39.99446924 356.11814243 -39.99162006 357.20930672 C-39.92492509 383.01756108 -39.87567705 408.82580422 -39.84456348 434.63412666 C-39.82911602 447.11500238 -39.8080671 459.59582106 -39.77368164 472.07666016 C-39.74371431 482.95907597 -39.72440959 493.84145046 -39.71773452 504.7239064 C-39.71383468 510.48233208 -39.70471383 516.24063957 -39.68280983 521.99902725 C-39.66232875 527.42772593 -39.65618957 532.85625858 -39.66067696 538.28499222 C-39.65985693 540.26901657 -39.65396099 542.25304692 -39.64238358 544.23703766 C-39.54821305 561.21900834 -40.24216591 576.44702232 -52.125 589.75 C-59.83175056 597.02572424 -69.28546049 600.13820021 -79.62329102 600.17700195 C-80.76809181 600.18685875 -80.76809181 600.18685875 -81.9360199 600.19691467 C-84.4586498 600.2166017 -86.98122015 600.22830297 -89.50390625 600.23828125 C-90.36911329 600.24235678 -91.23432034 600.2464323 -92.12574577 600.25063133 C-96.70956049 600.27147729 -101.29334544 600.28578269 -105.87719727 600.29516602 C-110.58890927 600.30619857 -115.30014488 600.340566 -120.01168919 600.38033772 C-123.65364905 600.40661455 -127.29549757 600.41486785 -130.93754387 600.41844749 C-132.67291399 600.42328867 -134.40827998 600.43483135 -136.14355659 600.45348549 C-148.9908088 600.582956 -159.65776933 599.67421715 -169.92578125 591.046875 C-176.33048701 584.72660039 -179.46632182 578.78379324 -181 570 C-181.66 569.67 -182.32 569.34 -183 569 C-182.99476318 568.01080566 -182.98952637 567.02161133 -182.98413086 566.00244141 C-182.96605477 562.33855084 -182.95455842 558.67466423 -182.94506836 555.01074219 C-182.94003412 553.42382139 -182.93320631 551.83690523 -182.92456055 550.25 C-182.91245518 547.97134251 -182.90676267 545.69274624 -182.90234375 543.4140625 C-182.89460182 542.34679428 -182.89460182 542.34679428 -182.88670349 541.25796509 C-182.82685242 537.50406444 -182.82685242 537.50406444 -184 534 C-183.34 534 -182.68 534 -182 534 C-182.16265854 532.88708084 -182.32531708 531.77416168 -182.49290466 530.6275177 C-183.1015061 525.72860386 -183.13318831 520.89064842 -183.11352539 515.9597168 C-183.11367142 514.98801041 -183.11381744 514.01630402 -183.1139679 513.01515198 C-183.11327533 509.82648428 -183.10551229 506.63787616 -183.09765625 503.44921875 C-183.09578931 501.22581514 -183.09436671 499.00241112 -183.09336853 496.77900696 C-183.08956153 490.94244235 -183.07974908 485.10590287 -183.06866455 479.26934814 C-183.05842462 473.31954283 -183.05386184 467.36973347 -183.04882812 461.41992188 C-183.03859616 450.2494493 -183.02282483 439.07899317 -183.00279331 427.90853405 C-183.00039862 426.27235752 -183 424.63617828 -183 423 C-182.98847686 421.18749875 -182.9767285 419.37499892 -182.96484375 417.5625 C-182.95552958 415.37500084 -182.94642337 413.18750079 -182.9375 411 C-182.92912109 409.89398437 -182.92074219 408.78796875 -182.91210938 407.6484375 C-182.90888672 406.58882812 -182.90566406 405.52921875 -182.90234375 404.4375 C-182.89710693 403.46683594 -182.89187012 402.49617188 -182.88647461 401.49609375 C-182.89225427 398.86857304 -182.89225427 398.86857304 -184 396 C-184.09194171 394.63388494 -184.13066857 393.26373505 -184.1328125 391.89453125 C-184.13410156 391.07404297 -184.13539063 390.25355469 -184.13671875 389.40820312 C-184.13285156 388.55162109 -184.12898437 387.69503906 -184.125 386.8125 C-184.12886719 386.00619141 -184.13273438 385.19988281 -184.13671875 384.36914062 C-184.12863217 379.11690977 -183.87238052 373.91623 -183.49978638 368.67726135 C-182.94131565 360.22302064 -182.85826035 351.80156666 -182.87060547 343.33178711 C-182.86924596 341.7348934 -182.86746297 340.138 -182.86529541 338.54110718 C-182.86078972 334.25865538 -182.86248107 329.97622804 -182.8656745 325.69377589 C-182.86823 321.1901015 -182.86585212 316.68642901 -182.86428833 312.18275452 C-182.86247756 304.63395822 -182.86484591 297.08517176 -182.86962891 289.53637695 C-182.87508722 280.8213472 -182.87329313 272.10634079 -182.8678025 263.39131159 C-182.86326135 255.88096096 -182.86262521 248.37061735 -182.86524117 240.86026579 C-182.86679614 236.38617384 -182.86701877 231.91209287 -182.86370468 227.43800163 C-182.86081077 223.23948829 -182.86282957 219.04100506 -182.86859894 214.84249496 C-182.86991762 213.30542997 -182.86954761 211.76836242 -182.86733627 210.23129845 C-182.86459006 208.12824039 -182.86804788 206.02527797 -182.87301636 203.92222595 C-182.87339338 202.74744155 -182.87377041 201.57265715 -182.87415886 200.36227322 C-183.00563253 196.84950784 -183.49228026 193.47566982 -184 190 C-183.87019632 187.62114896 -183.68063747 185.24495051 -183.4375 182.875 C-182.73742056 173.43792918 -182.738622 163.70083371 -188.4453125 155.71484375 C-194.05213654 149.53043231 -200.28214141 145.95395274 -208.67745209 145.47166443 C-209.73913479 145.42574913 -209.73913479 145.42574913 -210.82226562 145.37890625 C-211.57088112 145.34116592 -212.31949661 145.3034256 -213.09079742 145.26454163 C-220.67432864 144.91224599 -228.25343111 144.89047169 -235.84375 144.9375 C-237.32405416 144.94245356 -238.80436043 144.94681028 -240.28466797 144.95062256 C-243.40976173 144.95913208 -246.53483278 144.97005535 -249.65991211 144.98278809 C-257.89824141 145.01445912 -266.13661934 145.01519827 -274.375 145.015625 C-275.20280472 145.01568794 -276.03060944 145.01575089 -276.88349915 145.01581573 C-292.19980854 145.01502234 -307.51505318 144.98510038 -322.83032227 144.79248047 C-325.2565215 144.7643946 -327.68281013 144.74311901 -330.10913086 144.72900391 C-333.45870737 144.70796532 -336.8070423 144.66209567 -340.15625 144.609375 C-341.59665649 144.60753204 -341.59665649 144.60753204 -343.06616211 144.60565186 C-353.61513549 144.37564195 -361.17558888 140.671488 -368.734375 133.43359375 C-376.76568421 124.80685989 -379.22218478 116.75542626 -379.61328125 105.21484375 C-379.65060867 104.26270493 -379.6879361 103.3105661 -379.72639465 102.32957458 C-380.11239497 91.53840512 -380.18608565 80.74468049 -380.18530273 69.94750977 C-380.18751392 66.54105562 -380.20583798 63.13491405 -380.22460938 59.72851562 C-380.31104471 26.99922827 -380.31104471 26.99922827 -373 17 C-372.56816406 16.37738281 -372.13632812 15.75476563 -371.69140625 15.11328125 C-366.50572664 8.34104811 -359.07039739 4.38739034 -351 2 C-341.5925589 0.77183207 -332.03863517 0.85957742 -322.56730652 0.88647461 C-321.17000353 0.88675543 -319.7727004 0.88659008 -318.3753975 0.88602352 C-314.57801714 0.88573102 -310.78066881 0.89161838 -306.9832958 0.89859343 C-302.87237506 0.90501587 -298.76145293 0.90554027 -294.65052795 0.9067688 C-287.54185162 0.9096441 -280.43318579 0.91606401 -273.32451439 0.92483521 C-263.04569348 0.93742521 -252.76687642 0.9434739 -242.48804907 0.94776857 C-225.8067269 0.95482151 -209.12540962 0.96561483 -192.4440918 0.97949219 C-190.94909095 0.98073391 -190.94909095 0.98073391 -189.42388806 0.98200071 C-182.34509196 0.98790433 -175.26629597 0.99394069 -168.1875 1 C-160.07869474 1.0069351 -151.96988943 1.01379933 -143.86108398 1.02050781 C-142.36200351 1.02175 -142.36200351 1.02175 -140.83263858 1.02301729 C-124.19501937 1.03668214 -107.55740007 1.04645094 -90.91977674 1.05341816 C-80.65881063 1.0579062 -70.39785886 1.06596024 -60.13689945 1.07856297 C-53.12035568 1.08696084 -46.10381523 1.09187297 -39.08726677 1.09398818 C-35.03447909 1.09533855 -30.98170996 1.09838161 -26.92892838 1.10574722 C-23.2254977 1.11245302 -19.52209397 1.11464142 -15.81865779 1.11311162 C-13.83176117 1.11351526 -11.84486753 1.1189031 -9.85797852 1.12441921 C-8.69420034 1.12304486 -7.53042217 1.12167051 -6.33137798 1.12025452 C-4.81229872 1.12163721 -4.81229872 1.12163721 -3.26253098 1.12304783 C-1.03168141 1.25423611 -1.03168141 1.25423611 0 0 Z " fill="#A575FE" transform="translate(591,213)"/>
<path d="M0 0 C0.33 0 0.66 0 1 0 C1.33 38.28 1.66 76.56 2 116 C8.15612758 116.68401418 13.9429671 117.13854875 20.0859375 117.09765625 C20.90953766 117.0962413 21.73313782 117.09482635 22.58169556 117.09336853 C25.17950281 117.08783275 27.77721946 117.0753029 30.375 117.0625 C32.13932165 117.05747575 33.90364468 117.05291448 35.66796875 117.04882812 C38.88331881 117.04069764 42.0986358 117.0300563 45.31396484 117.01586914 C49.68830734 116.9970367 54.06217151 117.00462947 58.43652344 117.01586914 C65.11056424 117.03237892 71.78460425 117.04351419 78.45866013 117.05181217 C82.49019232 117.05700111 86.52170289 117.06403095 90.55322266 117.07543945 C94.4665167 117.08643893 98.37979012 117.09231175 102.29309845 117.09487724 C103.77114436 117.09669974 105.24918936 117.10025691 106.72722626 117.10573006 C116.53073749 117.14055311 126.22944613 116.778359 136 116 C135.11739502 115.11739502 134.23479004 114.23479004 133.32543945 113.32543945 C109.3215332 89.3215332 109.3215332 89.3215332 107.60342407 87.60269165 C106.13343155 86.1333706 104.66095501 84.66653582 103.18823242 83.19995117 C95.65027755 75.62162792 92.35145998 67.97137078 91.83984375 57.27734375 C92.33976826 47.0471813 97.6752315 39.13673508 104.875 32.25 C110.36306295 28.29859468 116.27771631 24.82422486 123.1875 24.9375 C125.0746875 24.9684375 125.0746875 24.9684375 127 25 C127.33 24.34 127.66 23.68 128 23 C128 23.66 128 24.32 128 25 C129.4540625 24.87625 129.4540625 24.87625 130.9375 24.75 C140.30558933 24.8252457 147.2489466 31.22442069 154 37 C155.04497597 37.88351902 156.09057522 38.76630125 157.13671875 39.6484375 C158.79897218 41.05166098 160.45977682 42.45645052 162.11669922 43.8659668 C165.50231572 46.745772 168.92058636 49.57759222 172.375 52.375 C177.49813067 56.54221124 182.47594928 60.86312457 187.45263672 65.20263672 C191.08719203 68.36452443 194.75511868 71.46842941 198.5 74.5 C202.91669155 78.07541697 207.21776874 81.76603141 211.5 85.5 C216.67925953 90.01481932 221.91835832 94.4323793 227.2578125 98.7578125 C230.36999968 101.30253535 233.43732143 103.89611777 236.5 106.5 C240.57011324 109.96016714 244.6676676 113.37909896 248.8125 116.75 C249.699375 117.47832031 250.58625 118.20664062 251.5 118.95703125 C253.07084012 120.24070216 254.65273442 121.51108198 256.25 122.76171875 C264.53211982 129.4909411 269.49542081 138.41116907 271 149 C271.5731559 160.0537209 268.08414542 169.25179782 261.125 177.8125 C258.34315326 180.80334559 255.30265794 183.47843963 252.1953125 186.125 C249.80162551 188.16943017 247.46153442 190.26552692 245.125 192.375 C244.28066406 193.13554688 243.43632813 193.89609375 242.56640625 194.6796875 C240.88302252 196.20165087 239.20320165 197.72756626 237.52734375 199.2578125 C233.21722675 203.17858454 228.84963248 206.96802163 224.3125 210.625 C220.58864142 213.63533603 217.19165035 216.74328617 213.875 220.1875 C211.53398027 222.45048573 209.03685869 224.45948323 206.5 226.5 C202.6452843 229.60270432 199.09071351 232.79252176 195.6484375 236.33984375 C191.61590868 240.40103984 187.15636662 244.01639813 182.80078125 247.72265625 C181.61696772 248.731513 180.43338113 249.74063609 179.25 250.75 C178.64542969 251.26506104 178.04085938 251.78012207 177.41796875 252.31079102 C173.50427824 255.66188851 169.70035201 259.10635043 165.9375 262.625 C154.20526404 273.41990686 143.72340548 282.70006134 126.96923828 282.47143555 C116.72428988 282.01192839 108.20338404 278.3254753 101 271 C94.60736613 263.03059793 91.60913415 255.33637022 92 245.125 C93.53268555 234.01302978 100.3288074 225.69436841 108 218 C108.51530273 217.48308594 109.03060547 216.96617187 109.56152344 216.43359375 C113.93166545 212.0556895 113.93166545 212.0556895 116.10205078 209.93359375 C118.90629466 207.23909923 118.90629466 207.23909923 121 204 C121.66 204 122.32 204 123 204 C123.25523437 203.41734375 123.51046875 202.8346875 123.7734375 202.234375 C125.11741087 199.78611777 126.61810296 198.18256752 128.625 196.25 C129.25664063 195.63640625 129.88828125 195.0228125 130.5390625 194.390625 C131.02117187 193.93171875 131.50328125 193.4728125 132 193 C130.20495377 190.78761232 130.20495377 190.78761232 127.7760849 190.75669765 C126.84398445 190.75984006 125.911884 190.76298246 124.95153809 190.76622009 C123.88308151 190.76491592 122.81462494 190.76361176 121.71379089 190.76226807 C120.53657974 190.77102966 119.35936859 190.77979126 118.14648438 190.78881836 C116.91070145 190.7901326 115.67491852 190.79144684 114.40168762 190.7928009 C111.71093413 190.79707325 109.02048047 190.80499674 106.32978821 190.81910515 C102.07805514 190.84133026 97.82636734 190.84945441 93.57458496 190.85560608 C86.85150736 190.86699563 80.12849649 190.88772841 73.40545607 190.91250378 C61.36167232 190.95680869 49.31786515 190.9899881 37.27402163 191.01274782 C33.04459441 191.02117165 28.81523301 191.03521333 24.58583832 191.05372036 C21.34174113 191.0668339 18.09762874 191.07373694 14.85351562 191.08178711 C13.67630447 191.08852448 12.49909332 191.09526184 11.28620911 191.10220337 C9.68352425 191.10447685 9.68352425 191.10447685 8.04846191 191.10679626 C6.65031124 191.11207541 6.65031124 191.11207541 5.2239151 191.1174612 C3 191 3 191 1 190 C1.00276538 191.05907122 1.00553076 192.11814243 1.00837994 193.20930672 C1.07507491 219.01756108 1.12432295 244.82580422 1.15543652 270.63412666 C1.17088398 283.11500238 1.1919329 295.59582106 1.22631836 308.07666016 C1.25628569 318.95907597 1.27559041 329.84145046 1.28226548 340.7239064 C1.28616532 346.48233208 1.29528617 352.24063957 1.31719017 357.99902725 C1.33767125 363.42772593 1.34381043 368.85625858 1.33932304 374.28499222 C1.34014307 376.26901657 1.34603901 378.25304692 1.35761642 380.23703766 C1.45178695 397.21900834 0.75783409 412.44702232 -11.125 425.75 C-18.83175056 433.02572424 -28.28546049 436.13820021 -38.62329102 436.17700195 C-39.38649155 436.18357315 -40.14969208 436.19014435 -40.9360199 436.19691467 C-43.4586498 436.2166017 -45.98122015 436.22830297 -48.50390625 436.23828125 C-49.36911329 436.24235678 -50.23432034 436.2464323 -51.12574577 436.25063133 C-55.70956049 436.27147729 -60.29334544 436.28578269 -64.87719727 436.29516602 C-69.58890927 436.30619857 -74.30014488 436.340566 -79.01168919 436.38033772 C-82.65364905 436.40661455 -86.29549757 436.41486785 -89.93754387 436.41844749 C-91.67291399 436.42328867 -93.40827998 436.43483135 -95.14355659 436.45348549 C-107.9908088 436.582956 -118.65776933 435.67421715 -128.92578125 427.046875 C-135.33048701 420.72660039 -138.46632182 414.78379324 -140 406 C-140.66 405.67 -141.32 405.34 -142 405 C-141.99476318 404.01080566 -141.98952637 403.02161133 -141.98413086 402.00244141 C-141.96605477 398.33855084 -141.95455842 394.67466423 -141.94506836 391.01074219 C-141.94003412 389.42382139 -141.93320631 387.83690523 -141.92456055 386.25 C-141.91245518 383.97134251 -141.90676267 381.69274624 -141.90234375 379.4140625 C-141.89718246 378.70255035 -141.89202118 377.99103821 -141.88670349 377.25796509 C-141.82685242 373.50406444 -141.82685242 373.50406444 -143 370 C-142.34 370 -141.68 370 -141 370 C-141.16265854 368.88708084 -141.32531708 367.77416168 -141.49290466 366.6275177 C-142.1015061 361.72860386 -142.13318831 356.89064842 -142.11352539 351.9597168 C-142.11367142 350.98801041 -142.11381744 350.01630402 -142.1139679 349.01515198 C-142.11327533 345.82648428 -142.10551229 342.63787616 -142.09765625 339.44921875 C-142.09578931 337.22581514 -142.09436671 335.00241112 -142.09336853 332.77900696 C-142.08956153 326.94244235 -142.07974908 321.10590287 -142.06866455 315.26934814 C-142.05842462 309.31954283 -142.05386184 303.36973347 -142.04882812 297.41992188 C-142.03859616 286.2494493 -142.02282483 275.07899317 -142.00279331 263.90853405 C-142.00039862 262.27235752 -142 260.63617828 -142 259 C-141.98847686 257.18749875 -141.9767285 255.37499892 -141.96484375 253.5625 C-141.95552958 251.37500084 -141.94642337 249.18750079 -141.9375 247 C-141.92912109 245.89398437 -141.92074219 244.78796875 -141.91210938 243.6484375 C-141.90888672 242.58882812 -141.90566406 241.52921875 -141.90234375 240.4375 C-141.89710693 239.46683594 -141.89187012 238.49617187 -141.88647461 237.49609375 C-141.89225427 234.86857304 -141.89225427 234.86857304 -143 232 C-143.09194171 230.63388494 -143.13066857 229.26373505 -143.1328125 227.89453125 C-143.13474609 226.66379883 -143.13474609 226.66379883 -143.13671875 225.40820312 C-143.13285156 224.55162109 -143.12898438 223.69503906 -143.125 222.8125 C-143.12886719 222.00619141 -143.13273437 221.19988281 -143.13671875 220.36914062 C-143.12876688 215.20440174 -142.87635729 210.09984619 -142.49609375 204.94921875 C-141.68138964 193.31626014 -141.8935437 181.65422447 -141.9375 170 C-141.94252736 167.66406346 -141.94708807 165.32812588 -141.95117188 162.9921875 C-141.96207421 157.32810162 -141.97871345 151.66405588 -142 146 C-141.34 145.67 -140.68 145.34 -140 145 C-139.67 162.82 -139.34 180.64 -139 199 C-138.01 198.67 -137.02 198.34 -136 198 C-135.67 198.33 -135.34 198.66 -135 199 C-134.505 197.02 -134.505 197.02 -134 195 C-134.66 195 -135.32 195 -136 195 C-133.63804572 186.87718164 -131.01247867 179.09865637 -124 174 C-123.40929986 172.05396726 -123.40929986 172.05396726 -123 170 C-121.10703624 166.98846674 -120.45508381 166.1516946 -117 165 C-117.495 164.01 -117.495 164.01 -118 163 C-117.34 163 -116.68 163 -116 163 C-115.7525 162.42765625 -115.505 161.8553125 -115.25 161.265625 C-113.80683801 158.64989389 -112.11783778 156.85226544 -110 154.75 C-109.29875 154.04359375 -108.5975 153.3371875 -107.875 152.609375 C-106 151 -106 151 -104 151 C-102.6256709 149.70896357 -101.29103643 148.3743291 -100 147 C-99.67 146.67 -99.34 146.34 -99 146 C-98.34 146 -97.68 146 -97 146 C-96.67 145.34 -96.34 144.68 -96 144 C-94.66666667 143.66666667 -93.33333333 143.33333333 -92 143 C-89.25167846 141.71815438 -89.25167846 141.71815438 -87 140 C-87 139.01 -87 138.02 -87 137 C-84.50935112 136.31292445 -82.62113708 136 -80 136 C-79.34 135.34 -78.68 134.68 -78 134 C-72.24242424 129 -72.24242424 129 -68 129 C-68 128.67 -68 128.34 -68 128 C-63.545 127.505 -63.545 127.505 -59 127 C-59.33 126.34 -59.66 125.68 -60 125 C-56.25 123.875 -56.25 123.875 -54 125 C-54 124.34 -54 123.68 -54 123 C-49.25 121.875 -49.25 121.875 -47 123 C-47 122.34 -47 121.68 -47 121 C-46.236875 121.020625 -45.47375 121.04125 -44.6875 121.0625 C-41.89814214 121.12942841 -41.89814214 121.12942841 -39 120 C-37.515 120.495 -37.515 120.495 -36 121 C-36 120.34 -36 119.68 -36 119 C-34.02 119.33 -32.04 119.66 -30 120 C-29.67 119.34 -29.34 118.68 -29 118 C-25.7 118.33 -22.4 118.66 -19 119 C-18.67 118.34 -18.34 117.68 -18 117 C-12.72 117 -7.44 117 -2 117 C-1.98969254 115.59320984 -1.97938507 114.18641968 -1.96876526 112.73699951 C-1.87110298 99.4936704 -1.76843356 86.25038809 -1.66066074 73.0071373 C-1.60537957 66.19829766 -1.55190599 59.38945278 -1.50268555 52.58056641 C-1.4551999 46.01236425 -1.40267989 39.44421489 -1.34705925 32.87607574 C-1.32664406 30.36741696 -1.30792959 27.85874374 -1.29092598 25.35005951 C-1.26686365 21.84236934 -1.23681129 18.33477868 -1.20532227 14.82714844 C-1.1995668 13.78489609 -1.19381134 12.74264374 -1.18788147 11.66880798 C-1.17809265 10.71250992 -1.16830383 9.75621185 -1.15821838 8.77093506 C-1.15176583 7.94132137 -1.14531328 7.11170769 -1.1386652 6.25695419 C-1.0031661 4.05153238 -0.61019725 2.11879156 0 0 Z " fill="#A374FE" transform="translate(550,377)"/>
<path d="M0 0 C3.97705889 0.01270523 7.95412254 0.01369314 11.9311986 0.01605082 C19.42451333 0.02220854 26.91776805 0.03854 34.41105664 0.05874979 C42.95794951 0.08128914 51.50484561 0.09214705 60.05176091 0.10214067 C77.59838971 0.12291298 95.14496049 0.15797486 112.69154406 0.20278788 C112.36154406 1.19278788 112.03154406 2.18278788 111.69154406 3.20278788 C111.36154406 2.54278788 111.03154406 1.88278788 110.69154406 1.20278788 C65.81154406 1.20278788 20.93154406 1.20278788 -25.30845594 1.20278788 C-25.26204969 16.66767069 -25.21564344 32.1325535 -25.16783094 48.06606913 C-25.14739436 57.85969159 -25.12797308 67.6532986 -25.11314344 77.4469285 C-25.08941288 92.99393859 -25.06152169 108.54086194 -25.00669813 124.08779764 C-24.96678874 135.41076447 -24.9410132 146.7336609 -24.93210196 158.05669612 C-24.92689422 164.05036539 -24.91468223 170.04383328 -24.88553572 176.03743792 C-24.85830202 181.68366384 -24.85002711 187.32960622 -24.85602522 192.97589159 C-24.85492855 195.04342298 -24.84702237 197.11096425 -24.83163404 199.17843866 C-24.72329752 214.49024535 -25.80752506 226.35169984 -36.89829969 237.85122538 C-44.72257474 245.1047886 -53.42258576 248.34034502 -63.93174696 248.37978983 C-64.69494749 248.38636103 -65.45814802 248.39293222 -66.24447584 248.39970255 C-68.76710574 248.41938958 -71.28967609 248.43109084 -73.81236219 248.44106913 C-74.67756924 248.44514465 -75.54277628 248.44922018 -76.43420172 248.45341921 C-81.01801643 248.47426516 -85.60180138 248.48857056 -90.18565321 248.49795389 C-94.89736522 248.50898645 -99.60860083 248.54335387 -104.32014513 248.58312559 C-107.96210499 248.60940242 -111.60395352 248.61765573 -115.24599981 248.62123537 C-116.98136994 248.62607654 -118.71673592 248.63761923 -120.45201254 248.65627337 C-133.29926474 248.78574387 -143.96622528 247.87700503 -154.23423719 239.24966288 C-160.63894295 232.92938827 -163.77477776 226.98658111 -165.30845594 218.20278788 C-165.96845594 217.87278788 -166.62845594 217.54278788 -167.30845594 217.20278788 C-167.30321913 216.21359354 -167.29798231 215.2243992 -167.2925868 214.20522928 C-167.27451072 210.54133872 -167.26301436 206.87745211 -167.2535243 203.21353006 C-167.24849007 201.62660926 -167.24166225 200.03969311 -167.23301649 198.45278788 C-167.22091112 196.17413038 -167.21521861 193.89553412 -167.21079969 191.61685038 C-167.20563841 190.90533823 -167.20047712 190.19382608 -167.19515944 189.46075296 C-167.13530837 185.70685232 -167.13530837 185.70685232 -168.30845594 182.20278788 C-167.64845594 182.20278788 -166.98845594 182.20278788 -166.30845594 182.20278788 C-166.47013258 181.04312006 -166.63180922 179.88345224 -166.79838514 178.68864298 C-167.30834774 174.59048132 -167.44806836 170.56189556 -167.46958876 166.42910624 C-167.47455366 165.69791071 -167.47951857 164.96671518 -167.48463392 164.21336222 C-167.49909863 161.82310875 -167.50602835 159.43292144 -167.51158094 157.04263163 C-167.51440832 156.22023052 -167.5172357 155.39782942 -167.52014875 154.55050707 C-167.53507169 150.20469838 -167.54434669 145.85892235 -167.54869032 141.51309061 C-167.55418807 137.03883423 -167.57826312 132.56488012 -167.60666227 128.09071875 C-167.62532228 124.63422128 -167.63049588 121.17779649 -167.6320262 117.72125292 C-167.63504185 116.07190711 -167.64303345 114.42256224 -167.65621138 112.77326632 C-167.67335519 110.46430277 -167.67137258 108.15607715 -167.66490126 105.84707499 C-167.66854689 104.53661707 -167.67219252 103.22615915 -167.67594862 101.87599039 C-167.25279925 97.64648204 -166.14992045 95.00566809 -164.30845594 91.20278788 C-163.76877946 89.79648643 -163.2403936 88.3857239 -162.73033094 86.96841288 C-159.44055284 78.02666234 -156.01668624 69.91781788 -150.30845594 62.20278788 C-149.91142469 61.66202616 -149.51439344 61.12126444 -149.10533094 60.564116 C-128.00234501 32.05601602 -99.59013044 13.67390125 -65.30845594 4.76528788 C-64.4341493 4.53059793 -63.55984266 4.29590799 -62.65904188 4.05410624 C-42.26894361 -0.8826938 -20.83173003 -0.07806548 0 0 Z " fill="#8759F9" transform="translate(575.3084559440613,564.7972121238708)"/>
<path d="M0 0 C0.64635342 -0.00226556 1.29270683 -0.00453111 1.95864671 -0.00686532 C4.12816517 -0.01320419 6.29762113 -0.01237604 8.46714783 -0.0115509 C10.02097657 -0.01454239 11.57480457 -0.01794489 13.12863159 -0.02172852 C17.35159801 -0.03057186 21.57454418 -0.03290671 25.79751897 -0.0335443 C29.3191933 -0.03449293 32.8408629 -0.03817052 36.36253542 -0.0417164 C44.66693991 -0.04986154 52.97133355 -0.0523005 61.27574158 -0.05158997 C69.85372083 -0.05098852 78.43163733 -0.06155346 87.0096007 -0.07733363 C94.36674709 -0.09038765 101.7238729 -0.0957748 109.08103079 -0.09513456 C113.47860414 -0.09487902 117.87612169 -0.09776086 122.27368355 -0.10831261 C126.40637111 -0.11795818 130.53894909 -0.1180973 134.6716404 -0.11079597 C136.19144601 -0.10974584 137.71125833 -0.11213826 139.2310524 -0.11815643 C141.29942955 -0.12581892 143.36742275 -0.12127035 145.43579102 -0.11352539 C147.17490045 -0.11434254 147.17490045 -0.11434254 148.94914341 -0.1151762 C151.65440369 0.13371277 151.65440369 0.13371277 153.65440369 2.13371277 C150.1410285 3.21446891 146.89092022 3.26209246 143.22651672 3.26742554 C142.58339244 3.26969109 141.94026815 3.27195665 141.27765524 3.27429086 C139.12506219 3.2806155 136.97253234 3.2798025 134.81993103 3.27897644 C133.27580687 3.28196877 131.73168346 3.28537147 130.18756104 3.28915405 C125.99564454 3.29798779 121.80374846 3.30033182 117.61182356 3.30096984 C114.11495231 3.30191917 110.61808583 3.3055975 107.12121642 3.30914193 C98.87576597 3.31728307 90.63032644 3.31972637 82.38487244 3.3190155 C73.8687882 3.31841385 65.35276713 3.32898384 56.83669889 3.34475917 C49.53048731 3.35781283 42.22429645 3.36320036 34.9180733 3.36256009 C30.55181382 3.36230459 26.18561054 3.36518484 21.81936264 3.37573814 C17.71703027 3.38538335 13.6148083 3.3855231 9.51247215 3.37822151 C8.00395358 3.3771714 6.49542825 3.37956367 4.98692131 3.38558197 C2.93406905 3.39324409 0.88117953 3.38748412 -1.17167664 3.38095093 C-2.89777633 3.38176808 -2.89777633 3.38176808 -4.65874672 3.38260174 C-7.34559631 3.13371277 -7.34559631 3.13371277 -9.34559631 1.13371277 C-6.0088219 0.02145463 -3.51643611 0.00508112 0 0 Z " fill="#9B70F5" transform="translate(258.34559631347656,213.8662872314453)"/>
<path d="M0 0 C44.88 0 89.76 0 136 0 C135.67 0.99 135.34 1.98 135 3 C134.34892053 2.92894547 133.69784105 2.85789093 133.0270319 2.78468323 C125.88767363 2.06322563 118.84748286 1.86831151 111.67553711 1.90234375 C109.90767349 1.90453415 109.90767349 1.90453415 108.10409546 1.9067688 C105.56585706 1.91055149 103.02762123 1.91664305 100.48939323 1.92483521 C96.47636656 1.93766295 92.46337448 1.94427463 88.45033264 1.94897461 C79.94603999 1.96001438 71.44177454 1.9795963 62.9375 2 C53.72293382 2.02204921 44.50837811 2.04258076 35.29379088 2.05341816 C30.66010318 2.05920485 26.0264731 2.07278299 21.39280701 2.08764648 C18.98184246 2.09127648 16.57087748 2.09462853 14.15991211 2.09765625 C13.05294479 2.10282257 11.94597748 2.10798889 10.8054657 2.11331177 C9.80050049 2.11338226 8.79553528 2.11345276 7.76011658 2.11352539 C6.44586905 2.11685631 6.44586905 2.11685631 5.10507107 2.12025452 C3 2 3 2 1 1 C1 69.64 1 138.28 1 209 C0.67 209 0.34 209 0 209 C0 140.03 0 71.06 0 0 Z " fill="#A47AF8" transform="translate(550,566)"/>
<path d="M0 0 C9.08485813 3.21755392 15.80596407 9.26992521 20 18 C21.039959 21.31993265 21.12334092 24.36480737 21.12025452 27.83392334 C21.12162918 29.02581772 21.12300385 30.2177121 21.12442017 31.44572449 C21.12082489 32.74979752 21.11722961 34.05387054 21.11352539 35.39746094 C21.11324326 36.78719582 21.11340176 38.17693085 21.1139679 39.56666565 C21.11425486 43.33698276 21.10837442 47.10726806 21.10139394 50.87757778 C21.09514362 54.81871314 21.09455527 58.75984922 21.09336853 62.70098877 C21.09026017 70.1630069 21.08205344 77.62501039 21.07201904 85.08702207 C21.06084254 93.582719 21.05534358 102.07841663 21.05032361 110.57411909 C21.03987043 128.0494212 21.02228056 145.52470905 21 163 C20.34 163 19.68 163 19 163 C19.00138269 162.159313 19.00138269 162.159313 19.00279331 161.30164242 C19.02490519 147.64644129 19.04137527 133.99124331 19.05181217 120.3360281 C19.0570292 113.7323941 19.06410547 107.12877304 19.07543945 100.52514648 C19.0863102 94.15148352 19.09228574 87.77783298 19.09487724 81.40416145 C19.09672393 78.97332628 19.10033002 76.54249179 19.10573006 74.11166191 C19.11299599 70.70520435 19.11398859 67.29879806 19.11352539 63.89233398 C19.11712067 62.88891968 19.12071594 61.88550537 19.12442017 60.85168457 C19.11698043 55.7904563 18.79329275 51.01182122 18 46 C18.12980368 43.62114896 18.31936253 41.24495051 18.5625 38.875 C19.26257944 29.43792918 19.261378 19.70083371 13.5546875 11.71484375 C9.53631047 7.2825133 4.74477833 3.79524323 -1 2 C-0.67 1.34 -0.34 0.68 0 0 Z " fill="#845CF1" transform="translate(389,357)"/>
<path d="M0 0 C0.33 0 0.66 0 1 0 C1.33 17.82 1.66 35.64 2 54 C2.66 54 3.32 54 4 54 C3.125 59.75 3.125 59.75 2 62 C1.88143364 63.6027098 1.82293876 65.21005353 1.79467773 66.81689453 C1.7647599 68.31822433 1.7647599 68.31822433 1.73423767 69.84988403 C1.71752518 70.93325043 1.70081268 72.01661682 1.68359375 73.1328125 C1.66281265 74.23978485 1.64203156 75.3467572 1.62062073 76.48727417 C1.55509009 80.03311799 1.49622386 83.57903754 1.4375 87.125 C1.39431813 89.5247475 1.35070395 91.92448727 1.30664062 94.32421875 C1.19940512 100.21606513 1.09764528 106.10798731 1 112 C-1 110 -1 110 -1.21118164 107.98461914 C-1.19434326 107.17629639 -1.17750488 106.36797363 -1.16015625 105.53515625 C-1.1437207 104.21161133 -1.1437207 104.21161133 -1.12695312 102.86132812 C-1.10568359 101.93771484 -1.08441406 101.01410156 -1.0625 100.0625 C-1.02803508 98.24096528 -0.99790208 96.41934207 -0.97265625 94.59765625 C-0.95468994 93.78820557 -0.93672363 92.97875488 -0.91821289 92.14477539 C-0.90696161 89.81270174 -0.90696161 89.81270174 -2 87 C-2.09194171 85.63388494 -2.13066857 84.26373505 -2.1328125 82.89453125 C-2.13474609 81.66379883 -2.13474609 81.66379883 -2.13671875 80.40820312 C-2.13285156 79.55162109 -2.12898438 78.69503906 -2.125 77.8125 C-2.12886719 77.00619141 -2.13273437 76.19988281 -2.13671875 75.36914062 C-2.12876417 70.20264374 -1.87476005 65.09753739 -1.4921875 59.9453125 C-0.675699 48.33511902 -0.93031824 36.69354652 -1 25.0625 C-1.0265149 20.53255492 -1.04647541 16.00264909 -1.0625 11.47265625 C-1.07494751 9.91515404 -1.07494751 9.91515404 -1.08764648 8.32618713 C-1.09094971 7.37686813 -1.09425293 6.42754913 -1.09765625 5.44946289 C-1.10289307 4.61169815 -1.10812988 3.77393341 -1.11352539 2.91078186 C-1 1 -1 1 0 0 Z " fill="#8B65F2" transform="translate(409,522)"/>
<path d="M0 0 C0.33 0.66 0.66 1.32 1 2 C19.83660755 1.89279861 38.67317403 1.78004398 57.5097084 1.66066074 C66.2556449 1.60536003 75.00158547 1.5518832 83.74755859 1.50268555 C91.36968674 1.45980511 98.99178523 1.41351736 106.61386752 1.36312145 C110.65045914 1.33655163 114.687045 1.31169932 118.72367096 1.29092598 C122.52226952 1.27132377 126.3208118 1.24716929 130.11935997 1.21950912 C131.51414402 1.21015767 132.90894042 1.20247556 134.30374336 1.19658089 C136.20726086 1.1882874 138.11074635 1.17342197 140.01422119 1.15821838 C141.07981388 1.15176583 142.14540657 1.14531328 143.24328995 1.1386652 C145.67106862 1.01654557 147.67640522 0.66269265 150 0 C152.72738784 -0.22127864 155.24725385 -0.13319739 158 0 C158.99 0.99 158.99 0.99 160 2 C156.48662482 3.08075615 153.23651653 3.12837969 149.57211304 3.13371277 C148.92898875 3.13597833 148.28586446 3.13824388 147.62325156 3.14057809 C145.4706585 3.14690273 143.31812866 3.14608973 141.16552734 3.14526367 C139.62140318 3.148256 138.07727977 3.1516587 136.53315735 3.15544128 C132.34124086 3.16427502 128.14934477 3.16661905 123.95741987 3.16725707 C120.46054863 3.1682064 116.96368214 3.17188473 113.46681273 3.17542917 C105.22136228 3.1835703 96.97592275 3.1860136 88.73046875 3.18530273 C80.21438451 3.18470108 71.69836344 3.19527107 63.1822952 3.2110464 C55.87608363 3.22410006 48.56989277 3.22948759 41.26366961 3.22884732 C36.89741013 3.22859182 32.53120685 3.23147207 28.16495895 3.24202538 C24.06262659 3.25167058 19.96040461 3.25181033 15.85806847 3.24450874 C14.34954989 3.24345863 12.84102456 3.2458509 11.33251762 3.2518692 C9.27966536 3.25953132 7.22677584 3.25377135 5.17391968 3.24723816 C3.44781999 3.24805531 3.44781999 3.24805531 1.68684959 3.24888897 C-1 3 -1 3 -3 1 C-2.01 0.67 -1.02 0.34 0 0 Z " fill="#9763FC" transform="translate(252,214)"/>
<path d="M0 0 C1.04590805 0.00222061 2.0918161 0.00444122 3.16941833 0.00672913 C4.35056717 0.00680466 5.531716 0.00688019 6.74865723 0.00695801 C8.03404892 0.01211929 9.31944061 0.01728058 10.64378357 0.02259827 C12.60601112 0.02472069 12.60601112 0.02472069 14.60787964 0.02688599 C18.09150591 0.03071042 21.57509071 0.04054005 25.05870056 0.05158997 C28.6111444 0.06180569 32.16359491 0.06638395 35.71604919 0.07142639 C42.69067564 0.0821624 49.66527449 0.09923792 56.63987732 0.12025452 C55.63987732 2.12025452 55.63987732 2.12025452 53.76976013 2.74867249 C42.40540396 4.82377656 30.89660781 4.33648215 19.38987732 4.24525452 C17.18024595 4.23520632 14.97061017 4.22608372 12.76097107 4.21791077 C7.3871757 4.19603929 2.01354746 4.16270711 -3.36012268 4.12025452 C-3.36012268 0.17120717 -3.36012268 0.17120717 0 0 Z " fill="#B380F9" transform="translate(600.3601226806641,213.87974548339844)"/>
<path d="M0 0 C42.57 0 85.14 0 129 0 C128.67 0.99 128.34 1.98 128 3 C127.34502879 2.92912957 126.69005758 2.85825914 126.01523876 2.78524113 C118.99227222 2.07900061 112.0659216 1.86242082 105.01098633 1.88647461 C103.86821228 1.88632858 102.72543823 1.88618256 101.54803467 1.8860321 C97.80934686 1.88672306 94.07071025 1.89447686 90.33203125 1.90234375 C87.72458422 1.90421084 85.11713684 1.90563337 82.50968933 1.90663147 C76.37245987 1.90972431 70.23524848 1.91790978 64.09802693 1.92798096 C57.10395339 1.93920608 50.10987892 1.94466859 43.11579859 1.94967639 C28.74385607 1.96009437 14.37192868 1.97765369 0 2 C0 1.34 0 0.68 0 0 Z " fill="#B08DFB" transform="translate(557,566)"/>
<path d="M0 0 C0.33 0 0.66 0 1 0 C1 35.31 1 70.62 1 107 C0.67 107 0.34 107 0 107 C0 86.54 0 66.08 0 45 C-0.66 44.67 -1.32 44.34 -2 44 C-2 21 -2 21 -1 19 C-0.84932786 17.5534758 -0.75138964 16.1012066 -0.68359375 14.6484375 C-0.64169922 13.79765625 -0.59980469 12.946875 -0.55664062 12.0703125 C-0.51732422 11.18085937 -0.47800781 10.29140625 -0.4375 9.375 C-0.39431641 8.4778125 -0.35113281 7.580625 -0.30664062 6.65625 C-0.20043139 4.43765717 -0.09838806 2.2189512 0 0 Z " fill="#9B6DFB" transform="translate(410,615)"/>
<path d="M0 0 C1.70618923 2.218046 3.24529906 4.40883176 4.6875 6.8125 C9.48540776 13.42583232 15.88801914 19.15538733 24 21 C34.57772829 22.30969505 43.5296463 21.97044432 52.75 16.3125 C55 15 55 15 58 15 C47.75407788 23.420186 38.9800587 25.1220483 26 24 C16.10577475 21.94786439 8.23219668 16.54421865 2.4375 8.3125 C0.28191589 5.02362777 0 4.13360388 0 0 Z " fill="#8350EF" transform="translate(645,635)"/>
<path d="M0 0 C3.39743025 1.51866698 6.01618284 3.50279002 8.875 5.875 C9.84179688 6.67679687 10.80859375 7.47859375 11.8046875 8.3046875 C15.8335981 11.69017881 19.82191959 15.12303399 23.80834961 18.55834961 C27.31045833 21.57114746 30.84696916 24.52986358 34.4375 27.4375 C39.6230937 31.64598628 44.66770386 36.00568003 49.69897461 40.39624023 C53.42636575 43.64777294 57.18814376 46.84777585 61 50 C56.64768085 50 54.58928096 47.32991173 51.5 44.5625 C50.23006174 43.44819784 48.95921971 42.33492487 47.6875 41.22265625 C47.05972656 40.67109863 46.43195312 40.11954102 45.78515625 39.55126953 C43.40051566 37.4790586 40.95712909 35.48544806 38.5 33.5 C33.65848101 29.56982576 28.92737609 25.52333927 24.20458984 21.45239258 C20.55266515 18.31133548 16.86289566 15.22648165 13.125 12.1875 C3.42998913 4.3022245 3.42998913 4.3022245 0 1 C0 0.67 0 0.34 0 0 Z " fill="#9963F4" transform="translate(701,413)"/>
<path d="M0 0 C-0.94359375 0.4021875 -0.94359375 0.4021875 -1.90625 0.8125 C-11.41181811 5.16444685 -17.40769948 10.75125103 -21.97192383 20.17553711 C-23.74080179 25.03522581 -23.70401617 29.81418262 -23.6875 34.9375 C-23.70406648 36.96753107 -23.72844292 38.99751782 -23.76171875 41.02734375 C-23.76131592 41.91156006 -23.76091309 42.79577637 -23.76049805 43.70678711 C-24 46 -24 46 -26 49 C-28.09398351 35.01863317 -27.2036051 21.95082173 -18.8125 10.25 C-14.42650669 4.8956705 -7.2267495 -2.16802485 0 0 Z " fill="#8052EA" transform="translate(238,218)"/>
<path d="M0 0 C0 3 0 3 -1.36328125 4.47265625 C-2.32814453 5.25962891 -2.32814453 5.25962891 -3.3125 6.0625 C-6.72934781 8.91989913 -10.04051249 11.85217245 -13.3125 14.875 C-17.03274581 18.27533563 -20.82450753 21.52664393 -24.75 24.6875 C-28.44495104 27.66746758 -31.8107776 30.74469555 -35.09765625 34.16015625 C-39.13695822 38.06675014 -43.60986457 41.49900592 -48 45 C-48.66 44.67 -49.32 44.34 -50 44 C-49.54625 43.5875 -49.0925 43.175 -48.625 42.75 C-46.9013628 41.09278133 -46.9013628 41.09278133 -46.125 38.9375 C-45 37 -45 37 -42.78125 36.1953125 C-39.34126869 34.71689357 -37.02264731 32.50473016 -34.375 29.9375 C-30.56707184 26.34079744 -26.72434382 22.89355964 -22.625 19.625 C-17.40945239 15.43583567 -12.53548399 10.93817876 -7.68212891 6.34033203 C-7.11671387 5.80649902 -6.55129883 5.27266602 -5.96875 4.72265625 C-5.46794922 4.24578369 -4.96714844 3.76891113 -4.45117188 3.27758789 C-3 2 -3 2 0 0 Z " fill="#8652EF" transform="translate(754,603)"/>
<path d="M0 0 C1.0659993 -0.00143509 1.0659993 -0.00143509 2.15353394 -0.00289917 C3.66160165 -0.00358044 5.16967228 -0.00172983 6.67773438 0.00244141 C8.96230872 0.00774316 11.24668218 0.00251941 13.53125 -0.00390625 C15.00000043 -0.00324453 16.46875073 -0.00196144 17.9375 0 C18.61177032 -0.00202423 19.28604065 -0.00404846 19.98074341 -0.00613403 C24.69503663 0.01660103 29.20852361 0.47915853 33.8671875 1.1328125 C33.8671875 1.7928125 33.8671875 2.4528125 33.8671875 3.1328125 C19.6771875 3.1328125 5.4871875 3.1328125 -9.1328125 3.1328125 C-9.1328125 2.4728125 -9.1328125 1.8128125 -9.1328125 1.1328125 C-6.19226852 -0.33745949 -3.22245466 -0.00950298 0 0 Z " fill="#9C6EF7" transform="translate(422.1328125,213.8671875)"/>
<path d="M0 0 C1.74120117 0.00676758 1.74120117 0.00676758 3.51757812 0.01367188 C6.36593934 0.02539353 9.21419222 0.0418024 12.0625 0.0625 C12.5575 1.5475 12.5575 1.5475 13.0625 3.0625 C2.1725 3.0625 -8.7175 3.0625 -19.9375 3.0625 C-19.9375 2.4025 -19.9375 1.7425 -19.9375 1.0625 C-13.29708878 -0.16149452 -6.73528303 -0.04977753 0 0 Z " fill="#9C6FF8" transform="translate(652.9375,493.9375)"/>
<path d="M0 0 C0.66 0 1.32 0 2 0 C0.36851044 3.89332736 -2.17627942 6.64719075 -5 9.75 C-5.45117188 10.25660156 -5.90234375 10.76320313 -6.3671875 11.28515625 C-7.53360812 12.56545817 -8.76283971 13.78791729 -10 15 C-10.66 15 -11.32 15 -12 15 C-12.26039063 15.58265625 -12.52078125 16.1653125 -12.7890625 16.765625 C-14.07588751 19.14002469 -15.52252801 20.79236584 -17.375 22.75 C-20.33421744 26.04143727 -22.36977575 29.20949975 -24.17578125 33.23828125 C-25 35 -25 35 -27 38 C-26.69323008 24.19535358 -13.90920434 14.57959985 -4.7890625 5.74609375 C-4.08475098 5.07247803 -3.38043945 4.3988623 -2.65478516 3.70483398 C-0.91751854 2.08675503 -0.91751854 2.08675503 0 0 Z " fill="#8856F5" transform="translate(671,581)"/>
<path d="M0 0 C-0.56847656 0.29132813 -1.13695312 0.58265625 -1.72265625 0.8828125 C-11.92104481 6.29698205 -17.77830591 11.67509662 -21.62890625 22.8203125 C-22.19091976 26.12140236 -22.10349816 29.41338062 -22.0625 32.75 C-22.05798828 33.44738281 -22.05347656 34.14476562 -22.04882812 34.86328125 C-22.0371002 36.57555803 -22.01916653 38.28779033 -22 40 C-22.66 39.67 -23.32 39.34 -24 39 C-26.11312743 29.26770889 -24.75805741 21.15816131 -19.60546875 12.71484375 C-15.32866622 6.67766868 -7.96620521 -2.45372566 0 0 Z " fill="#9563F3" transform="translate(667,405)"/>
<path d="M0 0 C0.33 0 0.66 0 1 0 C2.14896596 11.51362133 1.93492888 22.83076572 1.5625 34.375 C1.50912468 36.19008543 1.45638613 38.00518971 1.40429688 39.8203125 C1.27685424 44.21379292 1.14085676 48.60693003 1 53 C0.67 53 0.34 53 0 53 C-0.89133941 40.79183342 -1.11050744 28.61050835 -1.125 16.375 C-1.12749756 15.62364777 -1.12999512 14.87229553 -1.13256836 14.09817505 C-1.13843543 11.94821508 -1.13697999 9.79839891 -1.1328125 7.6484375 C-1.13168457 6.39208496 -1.13055664 5.13573242 -1.12939453 3.84130859 C-1 1 -1 1 0 0 Z " fill="#7854EC" transform="translate(212,272)"/>
<path d="M0 0 C0.33 0 0.66 0 1 0 C0.64598836 8.31927346 -3.77986564 14.17948924 -9.75 19.75 C-15.00703346 24.07043554 -20.75704599 27.720435 -27.625 28.3125 C-28.40875 28.209375 -29.1925 28.10625 -30 28 C-27.34232363 26.22821575 -25.33980212 25.35253376 -22.375 24.3125 C-14.00800063 21.01455864 -7.52722542 15.78116869 -3 8 C-2.1319583 4.73289124 -2.1319583 4.73289124 -2 2 C-1.34 2 -0.68 2 0 2 C0 1.34 0 0.68 0 0 Z " fill="#7147E0" transform="translate(547,784)"/>
<path d="M0 0 C1.78534996 2.67802494 2.56824513 4.57012907 3.5625 7.5625 C7.58910346 17.66588231 14.63212843 23.50316819 24.3984375 27.84375 C27 29 27 29 30 31 C21.24154678 30.83474617 14.71742888 26.76634242 8.625 20.59375 C3.88910734 14.9524661 0.28320242 9.53123867 -0.1875 2 C-0.125625 1.34 -0.06375 0.68 0 0 Z " fill="#6D43DF" transform="translate(410,781)"/>
<path d="M0 0 C5.21015144 4.26285118 9.9501445 8.87275867 14.64746094 13.68457031 C17.61176644 16.6995477 20.6603863 19.39305665 24 22 C25.68662458 23.64646685 27.35511706 25.31183067 29 27 C29.598125 27.556875 30.19625 28.11375 30.8125 28.6875 C32 30 32 30 32 32 C29.20574912 30.7237475 27.14857874 29.40029023 24.97558594 27.234375 C24.13516754 26.40341309 24.13516754 26.40341309 23.277771 25.55566406 C22.68595032 24.95979492 22.09412964 24.36392578 21.484375 23.75 C20.86854553 23.13608398 20.25271606 22.52216797 19.6182251 21.88964844 C18.32147354 20.59425517 17.02723343 19.29634356 15.73535156 17.99609375 C13.75024798 16.00024932 11.75466409 14.01533274 9.7578125 12.03125 C8.49935789 10.77147445 7.24152346 9.51107899 5.984375 8.25 C5.3844574 7.65413086 4.78453979 7.05826172 4.16644287 6.44433594 C0 2.22993247 0 2.22993247 0 0 Z " fill="#9660F5" transform="translate(656,461)"/>
<path d="M0 0 C0.78761719 0.09539062 1.57523437 0.19078125 2.38671875 0.2890625 C4.25884173 0.51776862 6.12960834 0.75754182 8 1 C8 1.33 8 1.66 8 2 C3.42847075 2.02485982 -1.14301847 2.04293526 -5.71459961 2.05493164 C-7.26734096 2.05993684 -8.82007766 2.06674301 -10.37280273 2.07543945 C-12.61443232 2.08767307 -14.85599918 2.09326657 -17.09765625 2.09765625 C-18.12621483 2.10539818 -18.12621483 2.10539818 -19.17555237 2.11329651 C-23.56391821 2.1137986 -27.68401845 1.70910669 -32 1 C-32 0.67 -32 0.34 -32 0 C-28.54227657 -0.20005983 -25.08383018 -0.38267635 -21.625 -0.5625 C-20.65949219 -0.61857422 -19.69398438 -0.67464844 -18.69921875 -0.73242188 C-12.35132567 -1.05194669 -6.30014233 -0.81648079 0 0 Z " fill="#9E69F5" transform="translate(504,215)"/>
<path d="M0 0 C4.47505006 2.45324105 8.12166253 5.53152131 11.9375 8.875 C13.1337766 9.91445161 14.33038816 10.95351784 15.52734375 11.9921875 C16.10782471 12.49991699 16.68830566 13.00764648 17.28637695 13.53076172 C18.9032591 14.9170556 20.55850419 16.23874304 22.2265625 17.5625 C24.93548494 19.94329944 26.61779565 22.03386585 28.4375 25.125 C28.95183594 25.97320312 29.46617187 26.82140625 29.99609375 27.6953125 C31 30 31 30 30 33 C29.64550781 32.26136719 29.29101562 31.52273438 28.92578125 30.76171875 C24.11836344 21.60085236 18.09079115 16.21050287 10 10 C8.05962109 8.48284149 6.12179584 6.96240652 4.1875 5.4375 C3.37667969 4.81746094 2.56585937 4.19742187 1.73046875 3.55859375 C1.15941406 3.04425781 0.58835937 2.52992188 0 2 C0 1.34 0 0.68 0 0 Z " fill="#915BF0" transform="translate(787,485)"/>
<path d="M0 0 C9.24 0 18.48 0 28 0 C27.67 1.32 27.34 2.64 27 4 C23.6243699 3.88936784 20.24978011 3.75891985 16.875 3.625 C15.92367187 3.5940625 14.97234375 3.563125 13.9921875 3.53125 C8.98289652 3.32252954 4.69633387 2.94494635 0 1 C0 0.67 0 0.34 0 0 Z " fill="#AA7AF8" transform="translate(551,214)"/>
<path d="M0 0 C6.27 0 12.54 0 19 0 C19 0.33 19 0.66 19 1 C21.97 1.495 21.97 1.495 25 2 C25 2.66 25 3.32 25 4 C22.12493579 4.02712325 19.25013092 4.04689851 16.375 4.0625 C15.16263672 4.07506836 15.16263672 4.07506836 13.92578125 4.08789062 C9.49658082 4.1058955 5.36116576 3.89622662 1 3 C0.67 2.01 0.34 1.02 0 0 Z " fill="#B07FF9" transform="translate(679,214)"/>
<path d="M0 0 C0 0.33 0 0.66 0 1 C-5.11976891 2.03221147 -10.05146825 2.18330764 -15.25 2.1875 C-16.0646875 2.19974609 -16.879375 2.21199219 -17.71875 2.22460938 C-19.81383174 2.22981239 -21.90851996 2.1229057 -24 2 C-24.66 1.34 -25.32 0.68 -26 0 C-17.17755905 -0.93855755 -8.82244095 -0.93855755 0 0 Z " fill="#8F5CF5" transform="translate(597,495)"/>
<path d="M0 0 C2.0331579 3.04973685 2.2548508 3.68956868 2.265625 7.125 C2.26820313 7.91390625 2.27078125 8.7028125 2.2734375 9.515625 C2.26570312 10.33546875 2.25796875 11.1553125 2.25 12 C2.25773438 12.81984375 2.26546875 13.6396875 2.2734375 14.484375 C2.27085937 15.27328125 2.26828125 16.0621875 2.265625 16.875 C2.26336914 17.59429687 2.26111328 18.31359375 2.25878906 19.0546875 C2 21 2 21 0 24 C-1.21521251 15.88611956 -0.76299944 8.14648632 0 0 Z " fill="#8557F1" transform="translate(212,243)"/>
<path d="M0 0 C7.42686315 -0.10331031 14.63512596 0.00137301 22 1 C21.67 1.66 21.34 2.32 21 3 C18.06195004 3.08086376 15.12611925 3.1404283 12.1875 3.1875 C11.35412109 3.21263672 10.52074219 3.23777344 9.66210938 3.26367188 C8.45844727 3.27817383 8.45844727 3.27817383 7.23046875 3.29296875 C6.12288208 3.31653442 6.12288208 3.31653442 4.99291992 3.34057617 C2.47769478 2.91074167 1.60558484 1.92536938 0 0 Z " fill="#905DF5" transform="translate(548,494)"/>
<path d="M0 0 C1.70618923 2.218046 3.24529906 4.40883176 4.6875 6.8125 C7.62816472 10.86584866 11.14559765 13.83789322 15 17 C14.01 17.33 13.02 17.66 12 18 C6.70116011 14.46744007 2.86986329 9.68884247 0 4 C0 2.68 0 1.36 0 0 Z " fill="#804DEF" transform="translate(645,635)"/>
<path d="M0 0 C1.02222656 -0.01417969 2.04445313 -0.02835937 3.09765625 -0.04296875 C5.91793159 0.18591192 7.5430336 0.73474221 9.9375 2.1875 C8.9375 3.1875 8.9375 3.1875 6.98803711 3.20922852 C5.7390564 3.13853149 5.7390564 3.13853149 4.46484375 3.06640625 C3.56572266 3.01806641 2.66660156 2.96972656 1.74023438 2.91992188 C0.79470703 2.86384766 -0.15082031 2.80777344 -1.125 2.75 C-2.5490918 2.67168945 -2.5490918 2.67168945 -4.00195312 2.59179688 C-6.35576952 2.46168642 -8.70920699 2.32670888 -11.0625 2.1875 C-11.0625 1.8575 -11.0625 1.5275 -11.0625 1.1875 C-7.32769624 0.32773854 -3.83052846 0.0242132 0 0 Z " fill="#976DF4" transform="translate(622.0625,493.8125)"/>
<path d="M0 0 C0.96164062 0.00386719 1.92328125 0.00773438 2.9140625 0.01171875 C5.375 0.3125 5.375 0.3125 7.375 2.3125 C3.76506828 3.44730527 0.3907673 3.41265767 -3.375 3.375 C-4.54546875 3.36597656 -5.7159375 3.35695312 -6.921875 3.34765625 C-7.81390625 3.33605469 -8.7059375 3.32445312 -9.625 3.3125 C-6.4011479 0.41714467 -4.29859296 -0.07531228 0 0 Z " fill="#986EF6" transform="translate(404.625,213.6875)"/>
<path d="M0 0 C0.99 0 1.98 0 3 0 C3 0.99 3 1.98 3 3 C3.66 3 4.32 3 5 3 C4.125 8.75 4.125 8.75 3 11 C2.34 11 1.68 11 1 11 C0.67 7.37 0.34 3.74 0 0 Z " fill="#8A5FF7" transform="translate(408,573)"/>
<path d="M0 0 C0.33 0.66 0.66 1.32 1 2 C0.34 2 -0.32 2 -1 2 C-1.24492188 2.58265625 -1.48984375 3.1653125 -1.7421875 3.765625 C-3.20435874 6.36302236 -4.84740414 7.83975831 -7.125 9.75 C-8.21167969 10.67039062 -8.21167969 10.67039062 -9.3203125 11.609375 C-9.87460937 12.06828125 -10.42890625 12.5271875 -11 13 C-11 10 -11 10 -9.1015625 7.7734375 C-7.87566406 6.58621094 -7.87566406 6.58621094 -6.625 5.375 C-5.40683594 4.18003906 -5.40683594 4.18003906 -4.1640625 2.9609375 C-2 1 -2 1 0 0 Z " fill="#8E5BF5" transform="translate(685,568)"/>
<path d="M0 0 C-2 2 -2 2 -5.0390625 2.1953125 C-6.22242188 2.17210937 -7.40578125 2.14890625 -8.625 2.125 C-9.81351563 2.10695312 -11.00203125 2.08890625 -12.2265625 2.0703125 C-13.14179687 2.04710937 -14.05703125 2.02390625 -15 2 C-15.33 1.34 -15.66 0.68 -16 0 C-10.42289352 -1.06795656 -5.60563042 -0.82622671 0 0 Z " fill="#A56BF5" transform="translate(544,215)"/>
<path d="M0 0 C-0.66 0 -1.32 0 -2 0 C-2 0.66 -2 1.32 -2 2 C-3.45792884 2.05399736 -4.91642712 2.09279177 -6.375 2.125 C-7.18710937 2.14820313 -7.99921875 2.17140625 -8.8359375 2.1953125 C-11 2 -11 2 -13 0 C-11.33333333 -0.33333333 -9.66666667 -0.66666667 -8 -1 C-7.13375 -1.226875 -6.2675 -1.45375 -5.375 -1.6875 C-3 -2 -3 -2 0 0 Z " fill="#C185F9" transform="translate(594,215)"/>
<path d="M0 0 C0.66 0.33 1.32 0.66 2 1 C-1.63 4.63 -5.26 8.26 -9 12 C-9.33 11.34 -9.66 10.68 -10 10 C-3.84965831 2.51708428 -3.84965831 2.51708428 0 0 Z " fill="#B584FD" transform="translate(659,408)"/>
<path d="M0 0 C0.66 0 1.32 0 2 0 C2 0.66 2 1.32 2 2 C2.94875 1.95875 3.8975 1.9175 4.875 1.875 C8 2 8 2 10 4 C6.37 4 2.74 4 -1 4 C-1 1 -1 1 0 0 Z " fill="#B681FD" transform="translate(598,214)"/>
<path d="M0 0 C3.96 0 7.92 0 12 0 C11.67 1.32 11.34 2.64 11 4 C10.34 4 9.68 4 9 4 C9 3.34 9 2.68 9 2 C6.03 2 3.06 2 0 2 C0 1.34 0 0.68 0 0 Z " fill="#B87EF6" transform="translate(567,214)"/>
<path d="M0 0 C0.99 0.33 1.98 0.66 3 1 C1.60667426 4.36720387 0.0210714 5.9859524 -3 8 C-3.66 7.67 -4.32 7.34 -5 7 C-4.54625 6.5875 -4.0925 6.175 -3.625 5.75 C-1.94049626 3.93591905 -1.00734029 2.24714373 0 0 Z " fill="#8A57F4" transform="translate(709,640)"/>
<path d="M0 0 C3.70129644 0.38961015 5.61879622 1.11749016 8 4 C2.46153846 4.36923077 2.46153846 4.36923077 0.125 2.5 C-0.24625 2.005 -0.6175 1.51 -1 1 C-0.67 0.67 -0.34 0.34 0 0 Z " fill="#B789F9" transform="translate(722,218)"/>
<path d="M0 0 C3.96 0 7.92 0 12 0 C11.67 0.99 11.34 1.98 11 3 C7.37 2.34 3.74 1.68 0 1 C0 0.67 0 0.34 0 0 Z " fill="#AA85FE" transform="translate(674,566)"/>
<path d="M0 0 C-3.5486135 2.36574234 -4.5764525 2.10865265 -8.6875 1.625 C-10.17830078 1.45871094 -10.17830078 1.45871094 -11.69921875 1.2890625 C-12.45847656 1.19367188 -13.21773437 1.09828125 -14 1 C-14 0.67 -14 0.34 -14 0 C-9.02936879 -0.91297308 -4.97063121 -0.91297308 0 0 Z " fill="#9D62F3" transform="translate(527,215)"/>
<path d="M0 0 C0.66 0.66 1.32 1.32 2 2 C3.98821313 2.39764263 5.98944339 2.73775349 8 3 C8 3.33 8 3.66 8 4 C3.71 4 -0.58 4 -5 4 C-4.34 3.34 -3.68 2.68 -3 2 C-2.01 2 -1.02 2 0 2 C0 1.34 0 0.68 0 0 Z " fill="#B585FD" transform="translate(527,214)"/>
<path d="M0 0 C4 1 4 1 4 1 Z " fill="#9F9FFF" transform="translate(573,359)"/>
<path d="M0 0 C3 1 3 1 3 1 Z " fill="#AA55FF" transform="translate(396,367)"/>
<path d="M0 0 C2 1 2 1 2 1 Z " fill="#BF40FF" transform="translate(464,815)"/>
<path d="" fill="#BF40FF" transform="translate(0,0)"/>
<path d="" fill="#BF40FF" transform="translate(0,0)"/>
<path d="" fill="#BFBFFF" transform="translate(0,0)"/>
<path d="" fill="#CCCCFF" transform="translate(0,0)"/>
<path d="M0 0 C2 1 2 1 2 1 Z " fill="#FFFFFF" transform="translate(667,476)"/>
<path d="M0 0 C2 1 2 1 2 1 Z " fill="#FFFFFF" transform="translate(561,365)"/>
<path d="" fill="#FFFFFF" transform="translate(0,0)"/>
<path d="M0 0 C2 1 2 1 2 1 Z " fill="#FFFFFF" transform="translate(704,359)"/>
<path d="M0 0 C2 1 2 1 2 1 Z " fill="#BFBFFF" transform="translate(600,359)"/>
<path d="M0 0 C2 1 2 1 2 1 Z " fill="#9595FF" transform="translate(584,359)"/>
<path d="M0 0 C2 1 2 1 2 1 Z " fill="#8C73FF" transform="translate(384,359)"/>
<path d="M0 0 C2 1 2 1 2 1 Z " fill="#FF00FF" transform="translate(320,359)"/>
<path d="M0 0 C2 1 2 1 2 1 Z " fill="#BF40FF" transform="translate(304,359)"/>
<path d="M0 0 C2 1 2 1 2 1 Z " fill="#FF00FF" transform="translate(280,359)"/>
<path d="" fill="#000000" transform="translate(0,0)"/>
<path d="" fill="#0000FF" transform="translate(0,0)"/>
<path d="" fill="#FF00FF" transform="translate(0,0)"/>
<path d="" fill="#FF00FF" transform="translate(0,0)"/>
<path d="" fill="#FF00FF" transform="translate(0,0)"/>
<path d="" fill="#FF00FF" transform="translate(0,0)"/>
<path d="" fill="#FF00FF" transform="translate(0,0)"/>
<path d="" fill="#8080FF" transform="translate(0,0)"/>
<path d="" fill="#FF00FF" transform="translate(0,0)"/>
<path d="" fill="#FF00FF" transform="translate(0,0)"/>
<path d="" fill="#AA55FF" transform="translate(0,0)"/>
<path d="" fill="#8080FF" transform="translate(0,0)"/>
<path d="" fill="#FF00FF" transform="translate(0,0)"/>
<path d="" fill="#FF00FF" transform="translate(0,0)"/>
<path d="" fill="#FF00FF" transform="translate(0,0)"/>
<path d="" fill="#FF00FF" transform="translate(0,0)"/>
<path d="" fill="#FF00FF" transform="translate(0,0)"/>
<path d="" fill="#FF00FF" transform="translate(0,0)"/>
<path d="" fill="#FF00FF" transform="translate(0,0)"/>
<path d="" fill="#AA55FF" transform="translate(0,0)"/>
<path d="" fill="#8080FF" transform="translate(0,0)"/>
<path d="" fill="#8080FF" transform="translate(0,0)"/>
<path d="" fill="#FFFFFF" transform="translate(0,0)"/>
<path d="" fill="#FF00FF" transform="translate(0,0)"/>
<path d="" fill="#FFFFFF" transform="translate(0,0)"/>
<path d="" fill="#AA55FF" transform="translate(0,0)"/>
<path d="" fill="#FFFFFF" transform="translate(0,0)"/>
<path d="" fill="#8080FF" transform="translate(0,0)"/>
<path d="" fill="#FFFFFF" transform="translate(0,0)"/>
<path d="" fill="#FFFFFF" transform="translate(0,0)"/>
<path d="" fill="#FFFFFF" transform="translate(0,0)"/>
<path d="" fill="#FFFFFF" transform="translate(0,0)"/>
<path d="" fill="#FFFFFF" transform="translate(0,0)"/>
<path d="" fill="#FFFFFF" transform="translate(0,0)"/>
<path d="" fill="#FFFFFF" transform="translate(0,0)"/>
<path d="" fill="#8080FF" transform="translate(0,0)"/>
<path d="" fill="#FFFFFF" transform="translate(0,0)"/>
<path d="" fill="#FFFFFF" transform="translate(0,0)"/>
<path d="" fill="#FFFFFF" transform="translate(0,0)"/>
<path d="" fill="#FFFFFF" transform="translate(0,0)"/>
<path d="" fill="#FFFFFF" transform="translate(0,0)"/>
<path d="" fill="#FFFFFF" transform="translate(0,0)"/>
<path d="" fill="#AAAAFF" transform="translate(0,0)"/>
<path d="" fill="#FFFFFF" transform="translate(0,0)"/>
<path d="" fill="#FFFFFF" transform="translate(0,0)"/>
<path d="" fill="#FFFFFF" transform="translate(0,0)"/>
<path d="" fill="#AAAAFF" transform="translate(0,0)"/>
<path d="" fill="#FFFFFF" transform="translate(0,0)"/>
<path d="" fill="#8080FF" transform="translate(0,0)"/>
<path d="" fill="#FFFFFF" transform="translate(0,0)"/>
<path d="" fill="#8080FF" transform="translate(0,0)"/>
<path d="" fill="#FFFFFF" transform="translate(0,0)"/>
<path d="" fill="#FFFFFF" transform="translate(0,0)"/>
<path d="" fill="#FFFFFF" transform="translate(0,0)"/>
<path d="" fill="#FFFFFF" transform="translate(0,0)"/>
<path d="" fill="#FFFFFF" transform="translate(0,0)"/>
<path d="" fill="#FFFFFF" transform="translate(0,0)"/>
<path d="" fill="#FFFFFF" transform="translate(0,0)"/>
<path d="" fill="#FFFFFF" transform="translate(0,0)"/>
<path d="" fill="#8080FF" transform="translate(0,0)"/>
<path d="" fill="#FFFFFF" transform="translate(0,0)"/>
<path d="" fill="#8080FF" transform="translate(0,0)"/>
<path d="" fill="#8080FF" transform="translate(0,0)"/>
<path d="" fill="#FFFFFF" transform="translate(0,0)"/>
<path d="" fill="#FFFFFF" transform="translate(0,0)"/>
<path d="" fill="#8080FF" transform="translate(0,0)"/>
<path d="" fill="#FFFFFF" transform="translate(0,0)"/>
<path d="" fill="#FFFFFF" transform="translate(0,0)"/>
<path d="" fill="#FF00FF" transform="translate(0,0)"/>
<path d="" fill="#FF00FF" transform="translate(0,0)"/>
<path d="" fill="#FFFFFF" transform="translate(0,0)"/>
<path d="" fill="#FF00FF" transform="translate(0,0)"/>
<path d="" fill="#FFFFFF" transform="translate(0,0)"/>
<path d="" fill="#8080FF" transform="translate(0,0)"/>
<path d="" fill="#AAAAFF" transform="translate(0,0)"/>
<path d="" fill="#8080FF" transform="translate(0,0)"/>
<path d="" fill="#8080FF" transform="translate(0,0)"/>
<path d="" fill="#8080FF" transform="translate(0,0)"/>
<path d="" fill="#FFFFFF" transform="translate(0,0)"/>
<path d="" fill="#FFFFFF" transform="translate(0,0)"/>
<path d="" fill="#FFFFFF" transform="translate(0,0)"/>
<path d="" fill="#FFFFFF" transform="translate(0,0)"/>
<path d="" fill="#FFFFFF" transform="translate(0,0)"/>
<path d="" fill="#FFFFFF" transform="translate(0,0)"/>
<path d="" fill="#FFFFFF" transform="translate(0,0)"/>
<path d="" fill="#FFFFFF" transform="translate(0,0)"/>
<path d="" fill="#8080FF" transform="translate(0,0)"/>
<path d="" fill="#FFFFFF" transform="translate(0,0)"/>
<path d="" fill="#FFFFFF" transform="translate(0,0)"/>
<path d="" fill="#FFFFFF" transform="translate(0,0)"/>
<path d="" fill="#8080FF" transform="translate(0,0)"/>
<path d="" fill="#FFFFFF" transform="translate(0,0)"/>
<path d="" fill="#FF00FF" transform="translate(0,0)"/>
<path d="" fill="#FF00FF" transform="translate(0,0)"/>
<path d="" fill="#FF00FF" transform="translate(0,0)"/>
<path d="" fill="#FF00FF" transform="translate(0,0)"/>
<path d="" fill="#FF00FF" transform="translate(0,0)"/>
<path d="" fill="#FF00FF" transform="translate(0,0)"/>
<path d="" fill="#FF00FF" transform="translate(0,0)"/>
<path d="" fill="#FF00FF" transform="translate(0,0)"/>
<path d="" fill="#FF00FF" transform="translate(0,0)"/>
<path d="" fill="#8080FF" transform="translate(0,0)"/>
<path d="" fill="#FF00FF" transform="translate(0,0)"/>
<path d="" fill="#FF00FF" transform="translate(0,0)"/>
<path d="" fill="#FF00FF" transform="translate(0,0)"/>
<path d="" fill="#FF00FF" transform="translate(0,0)"/>
<path d="" fill="#FF00FF" transform="translate(0,0)"/>
<path d="" fill="#FFFFFF" transform="translate(0,0)"/>
<path d="" fill="#FF00FF" transform="translate(0,0)"/>
<path d="" fill="#FFFFFF" transform="translate(0,0)"/>
<path d="" fill="#FF00FF" transform="translate(0,0)"/>
<path d="" fill="#8080FF" transform="translate(0,0)"/>
<path d="" fill="#8080FF" transform="translate(0,0)"/>
<path d="" fill="#FFFFFF" transform="translate(0,0)"/>
<path d="" fill="#FFFFFF" transform="translate(0,0)"/>
<path d="" fill="#FFFFFF" transform="translate(0,0)"/>
<path d="" fill="#FF00FF" transform="translate(0,0)"/>
<path d="" fill="#8080FF" transform="translate(0,0)"/>
<path d="" fill="#AAAAFF" transform="translate(0,0)"/>
<path d="" fill="#FF00FF" transform="translate(0,0)"/>
<path d="" fill="#FFFFFF" transform="translate(0,0)"/>
</svg>
